<?xml version="1.0" encoding="UTF-8"?>
<svg id="Layer_1" data-name="Layer 1" xmlns="http://www.w3.org/2000/svg" viewBox="0 0 79.43 79.42">
  <defs>
    <style>
      .cls-1 {
        fill: #fff;
      }
    </style>
  </defs>
  <path class="cls-1" d="M70.25,65.09c-2.82,3.39-6.19,6.3-9.98,8.6-4.27-3.89-7.56-13.48-10.55-22.16-1.14-3.33-2.29-6.67-3.53-9.86-1.62,3.59-3.15,7.83-4.34,11.23,.14,.39,.28,.79,.41,1.19,2.97,8.64,6,17.45,10.53,23.12-4.09,1.43-8.5,2.21-13.08,2.21s-8.99-.78-13.09-2.21c4.54-5.67,7.57-14.48,10.53-23.12,3.86-11.23,8.23-23.96,14.56-23.96s10.7,12.73,14.55,23.96c1.28,3.72,2.57,7.48,3.99,11Z"/>
  <path class="cls-1" d="M79.42,39.71c0,6.12-1.39,11.92-3.86,17.1-.63-1.76-1.24-3.54-1.84-5.28-4.94-14.4-10.06-29.28-22.01-29.28s-17.07,14.88-22.02,29.28c-2.98,8.68-6.28,18.27-10.55,22.16-3.79-2.3-7.16-5.22-9.97-8.61,1.42-3.52,2.7-7.27,3.98-10.99,3.86-11.23,8.23-23.96,14.56-23.96,1.8,0,3.45,1.04,4.97,2.78,1.28-2.52,2.69-4.86,4.29-6.9-2.57-2.36-5.59-3.76-9.26-3.76-11.96,0-17.07,14.88-22.02,29.28-.6,1.74-1.2,3.52-1.84,5.28C1.38,51.63,0,45.83,0,39.71,0,17.78,17.77,0,39.71,0s39.71,17.78,39.71,39.71Z"/>
</svg>