<?xml version="1.0" encoding="UTF-8"?>
<!-- Generated by Pixelmator Pro 3.5.6 -->
<svg width="699" height="277" viewBox="0 0 699 277" xmlns="http://www.w3.org/2000/svg">
    <path id="Rectangle" fill="#ffffff" fill-rule="evenodd" stroke="none" d="M 255.310547 276.25 L 246.962891 225.46875 L 30.800781 261 L -0.015625 73.515625 L 443.457031 0.621094 L 451.804688 51.402344 L 667.964844 15.871094 L 698.783203 203.355469 L 255.310547 276.25 Z M 155.503906 174.535156 C 161.519907 174.535156 166.848271 173.398954 171.488281 171.126953 C 176.128276 168.854937 180.031192 165.7673 183.199219 161.863281 C 186.367215 157.959271 188.783266 153.448138 190.447266 148.328125 C 192.111265 143.208104 192.943359 137.831247 192.943359 132.199219 C 192.943359 127.399205 192.223204 123.175366 190.783203 119.527344 C 189.343202 115.879322 187.311521 112.806562 184.6875 110.310547 C 182.06351 107.814547 178.863888 105.943312 175.087891 104.695313 C 171.311863 103.447313 167.119731 102.822266 162.511719 102.822266 C 156.751715 102.822266 151.552135 103.943575 146.912109 106.183594 C 142.272099 108.423597 138.335538 111.447849 135.103516 115.255859 C 131.871494 119.063885 129.392058 123.463063 127.664063 128.455078 C 125.936067 133.447108 125.072266 138.726889 125.072266 144.294922 C 125.072266 154.086942 127.712163 161.575757 132.992188 166.759766 C 138.272196 171.943789 145.775858 174.535156 155.503906 174.535156 Z M 226.832031 174.535156 C 232.144038 174.535156 236.655155 173.878417 240.367188 172.566406 C 244.079189 171.254411 247.215365 169.334646 249.775391 166.806641 C 252.335386 164.278636 254.400758 161.127567 255.96875 157.351563 C 257.536772 153.575542 258.831483 149.222934 259.855469 144.294922 L 268.207031 104.455078 L 253.136719 104.455078 L 244.591797 145.0625 C 244.015778 147.62251 243.3927 149.958307 242.720703 152.070313 C 242.048707 154.18231 241.119536 155.958444 239.935547 157.398438 C 238.751527 158.838454 237.199308 159.959763 235.279297 160.759766 C 233.359285 161.559768 230.863034 161.958984 227.791016 161.958984 C 225.167025 161.958984 223.023405 161.639999 221.359375 161 C 219.695375 160.360001 218.383819 159.574492 217.423828 158.646484 C 216.463807 157.718492 215.807098 156.711058 215.455078 155.623047 C 215.103089 154.535058 214.927734 153.574187 214.927734 152.742188 C 214.927734 152.166184 214.976288 151.511398 215.072266 150.775391 C 215.168274 150.039384 215.295075 149.255828 215.455078 148.423828 C 215.615082 147.591828 215.775543 146.806304 215.935547 146.070313 C 216.09555 145.334306 216.239166 144.679519 216.367188 144.103516 L 224.720703 104.455078 L 209.648438 104.455078 L 201.296875 144.103516 C 200.976899 145.767515 200.655945 147.446581 200.335938 149.142578 C 200.01593 150.838591 199.855469 152.551294 199.855469 154.279297 C 199.855469 158.055302 200.639009 161.240031 202.207031 163.832031 C 203.775023 166.424032 205.82355 168.502306 208.351563 170.070313 C 210.879575 171.638319 213.760166 172.774522 216.992188 173.478516 C 220.224209 174.182525 223.504032 174.535156 226.832031 174.535156 Z M 452.431641 174.535156 C 458.447687 174.535156 463.776006 173.398946 468.416016 171.126953 C 473.056026 168.854945 476.96088 165.767292 480.128906 161.863281 C 483.296933 157.959271 485.711 153.448138 487.375 148.328125 C 489.039 143.20812 489.871094 137.831247 489.871094 132.199219 C 489.871094 127.39922 489.152892 123.175366 487.712891 119.527344 C 486.27289 115.879337 484.239194 112.806562 481.615234 110.310547 C 478.991214 107.814547 475.791622 105.943312 472.015625 104.695313 C 468.239628 103.447313 464.047481 102.822266 459.439453 102.822266 C 453.679449 102.822266 448.479854 103.943575 443.839844 106.183594 C 439.199773 108.423597 435.263302 111.447865 432.03125 115.255859 C 428.799259 119.063885 426.319822 123.463079 424.591797 128.455078 C 422.863832 133.447108 422 138.726904 422 144.294922 C 422 154.086935 424.639898 161.575757 429.919922 166.759766 C 435.199946 171.943789 442.703623 174.535156 452.431641 174.535156 Z M 527.119141 174.535156 C 530.383175 174.535156 533.51929 173.878417 536.527344 172.566406 C 539.535336 171.254411 542.160342 169.06223 544.400391 165.990234 L 544.591797 165.990234 L 544.591797 173 L 554.095703 173 L 561.96875 135.943359 L 532.880859 135.943359 L 530.480469 147.175781 L 546.320313 147.175781 C 545.680298 149.351789 544.863097 151.351786 543.871094 153.175781 C 542.87909 154.9998 541.632933 156.552026 540.128906 157.832031 C 538.624879 159.112029 536.831968 160.119462 534.751953 160.855469 C 532.671938 161.591476 530.192502 161.958984 527.3125 161.958984 C 524.560489 161.958984 522.207884 161.479537 520.255859 160.519531 C 518.303896 159.559525 516.703063 158.262862 515.455078 156.630859 C 514.207094 154.99885 513.279907 153.127622 512.671875 151.015625 C 512.063904 148.903612 511.759766 146.662931 511.759766 144.294922 C 511.759766 141.030918 512.20752 137.68768 513.103516 134.263672 C 513.999511 130.839664 515.35956 127.735181 517.183594 124.951172 C 519.007567 122.167178 521.343387 119.894774 524.191406 118.134766 C 527.039426 116.374758 530.384586 115.496094 534.224609 115.496094 C 538.448604 115.496094 541.775027 116.374758 544.207031 118.134766 C 546.639036 119.894774 547.952576 122.887333 548.144531 127.111328 L 563.216797 127.111328 C 563.216797 122.887333 562.448119 119.254849 560.912109 116.214844 C 559.3761 113.174838 557.295896 110.66371 554.671875 108.679688 C 552.047854 106.695681 548.975094 105.223662 545.455078 104.263672 C 541.935062 103.303666 538.160946 102.822266 534.128906 102.822266 C 528.368902 102.822266 523.167354 103.943575 518.527344 106.183594 C 513.887334 108.423597 509.952756 111.447865 506.720703 115.255859 C 503.488712 119.063885 501.007261 123.463079 499.279297 128.455078 C 497.551271 133.447108 496.6875 138.726904 496.6875 144.294922 C 496.6875 154.086935 499.327459 161.575757 504.607422 166.759766 C 509.887446 171.943789 517.391123 174.535156 527.119141 174.535156 Z M 599.984375 174.535156 C 606.00036 174.535156 611.32874 173.398946 615.96875 171.126953 C 620.60876 168.854945 624.511722 165.767292 627.679688 161.863281 C 630.847775 157.959271 633.263674 153.448138 634.927734 148.328125 C 636.591673 143.20812 637.423828 137.831247 637.423828 132.199219 C 637.423828 127.39922 636.703734 123.175366 635.263672 119.527344 C 633.823732 115.879337 631.79199 112.806562 629.167969 110.310547 C 626.543948 107.814547 623.344357 105.943312 619.568359 104.695313 C 615.792362 103.447313 611.600215 102.822266 606.992188 102.822266 C 601.232183 102.822266 596.032588 103.943575 591.392578 106.183594 C 586.752568 108.423597 582.816037 111.447865 579.583984 115.255859 C 576.351993 119.063885 573.872557 123.463079 572.144531 128.455078 C 570.416567 133.447108 569.552734 138.726904 569.552734 144.294922 C 569.552734 154.086935 572.192693 161.575757 577.472656 166.759766 C 582.75268 171.943789 590.256357 174.535156 599.984375 174.535156 Z M 76.111328 173 L 91.279297 173 L 96.560547 147.080078 L 129.96875 104.455078 L 112.207031 104.455078 L 90.896484 133.638672 L 80.623047 104.455078 L 65.167969 104.455078 L 81.583984 146.40625 L 76.111328 173 Z M 267.056641 173 L 282.03125 173 L 287.695313 146.214844 L 301.904297 146.214844 C 303.376311 146.214844 304.719545 146.326782 305.935547 146.550781 C 307.151549 146.77478 308.192628 147.207642 309.056641 147.847656 C 309.920653 148.487655 310.592286 149.334634 311.072266 150.390625 C 311.552276 151.446624 311.791016 152.806711 311.791016 154.470703 C 311.791016 156.774717 311.664215 159.095637 311.408203 161.431641 C 311.152222 163.767637 311.023438 166.086619 311.023438 168.390625 C 311.023438 169.15863 311.088806 169.910493 311.216797 170.646484 C 311.344787 171.382491 311.503296 172.168 311.695313 173 L 326.384766 173 C 326.000763 171.975999 325.743225 170.774443 325.615234 169.398438 C 325.487244 168.022432 325.423828 166.567259 325.423828 165.03125 C 325.423828 162.919245 325.504059 160.790495 325.664063 158.646484 C 325.824066 156.502482 325.904297 154.662947 325.904297 153.126953 C 325.904297 150.374949 325.424865 147.895506 324.464844 145.6875 C 323.504853 143.479494 321.616818 141.92726 318.800781 141.03125 L 318.800781 140.839844 C 321.104795 140.519852 323.216738 139.814574 325.136719 138.726563 C 327.05673 137.638566 328.720918 136.278502 330.128906 134.646484 C 331.536925 133.014482 332.624574 131.143263 333.392578 129.03125 C 334.160583 126.919253 334.544922 124.710249 334.544922 122.40625 C 334.544922 119.07825 334.063506 116.262983 333.103516 113.958984 C 332.143495 111.654986 330.768553 109.783766 328.976563 108.34375 C 327.184542 106.903749 325.024106 105.879485 322.496094 105.271484 C 319.968081 104.663483 317.167722 104.391083 314.095703 104.455078 L 281.359375 104.455078 L 267.056641 173 Z M 363.056641 173 L 411.248047 173 L 413.935547 160.328125 L 380.816406 160.328125 L 392.527344 104.455078 L 377.359375 104.455078 L 363.056641 173 Z M 155.695313 161.958984 C 152.943301 161.958984 150.592619 161.479537 148.640625 160.519531 C 146.688601 159.559525 145.087859 158.262862 143.839844 156.630859 C 142.591829 154.998842 141.664642 153.127622 141.056641 151.015625 C 140.44864 148.903612 140.144531 146.662931 140.144531 144.294922 C 140.144531 141.030902 140.592286 137.68768 141.488281 134.263672 C 142.384276 130.839649 143.744356 127.735181 145.568359 124.951172 C 147.392363 122.167163 149.728183 119.894774 152.576172 118.134766 C 155.424191 116.374758 158.767399 115.496094 162.607422 115.496094 C 165.423429 115.496094 167.792879 115.975541 169.712891 116.935547 C 171.632902 117.895553 173.200013 119.175386 174.416016 120.775391 C 175.632048 122.375395 176.512635 124.246615 177.056641 126.390625 C 177.600646 128.534635 177.871094 130.823855 177.871094 133.255859 C 177.871094 136.519879 177.408446 139.846256 176.480469 143.238281 C 175.552461 146.630291 174.160704 149.719897 172.304688 152.503906 C 170.448702 155.287915 168.14459 157.558351 165.392578 159.318359 C 162.640567 161.078352 159.407314 161.958984 155.695313 161.958984 Z M 452.623047 161.958984 C 449.871035 161.958984 447.520384 161.479537 445.568359 160.519531 C 443.616335 159.559525 442.015563 158.262862 440.767578 156.630859 C 439.519594 154.99885 438.592346 153.127622 437.984375 151.015625 C 437.376343 148.903612 437.072266 146.662931 437.072266 144.294922 C 437.072266 141.030918 437.52002 137.68768 438.416016 134.263672 C 439.312011 130.839664 440.672121 127.735181 442.496094 124.951172 C 444.320128 122.167178 446.655887 119.894774 449.503906 118.134766 C 452.351865 116.374758 455.695133 115.496094 459.535156 115.496094 C 462.351132 115.496094 464.720583 115.975541 466.640625 116.935547 C 468.560606 117.895553 470.127748 119.175386 471.34375 120.775391 C 472.559752 122.375395 473.440369 124.24663 473.984375 126.390625 C 474.528381 128.534635 474.800781 130.82387 474.800781 133.255859 C 474.800781 136.519879 474.336181 139.846271 473.408203 143.238281 C 472.480165 146.630291 471.088438 149.719905 469.232422 152.503906 C 467.376406 155.287915 465.072324 157.558359 462.320313 159.318359 C 459.568301 161.078352 456.335018 161.958984 452.623047 161.958984 Z M 600.175781 161.958984 C 597.423709 161.958984 595.071165 161.479537 593.119141 160.519531 C 591.167116 159.559525 589.568358 158.262862 588.320313 156.630859 C 587.072389 154.99885 586.143066 153.127622 585.535156 151.015625 C 584.927125 148.903612 584.625 146.662931 584.625 144.294922 C 584.625 141.030918 585.072755 137.68768 585.96875 134.263672 C 586.864745 130.839664 588.224855 127.735181 590.048828 124.951172 C 591.872801 122.167178 594.208621 119.894774 597.056641 118.134766 C 599.904538 116.374758 603.247807 115.496094 607.087891 115.496094 C 609.903806 115.496094 612.271364 115.975541 614.191406 116.935547 C 616.111326 117.895553 617.680421 119.175386 618.896484 120.775391 C 620.112426 122.375395 620.991089 124.24663 621.535156 126.390625 C 622.079101 128.534635 622.351563 130.82387 622.351563 133.255859 C 622.351563 136.519879 621.888915 139.846271 620.960938 143.238281 C 620.03296 146.630291 618.63928 149.719905 616.783203 152.503906 C 614.927248 155.287915 612.623166 157.558359 609.871094 159.318359 C 607.119143 161.078352 603.887692 161.958984 600.175781 161.958984 Z M 290 135.462891 L 294.03125 116.167969 L 308.335938 116.167969 C 309.807951 116.167969 311.216554 116.263077 312.560547 116.455078 C 313.90454 116.647079 315.087312 117.031418 316.111328 117.607422 C 317.135344 118.183425 317.952546 119.030397 318.560547 120.150391 C 319.168548 121.2704 319.472656 122.759233 319.472656 124.615234 C 319.472656 126.535246 319.039794 128.182588 318.175781 129.558594 C 317.311768 130.934599 316.160704 132.055924 314.720703 132.919922 C 313.280702 133.783935 311.631407 134.423844 309.775391 134.839844 C 307.919374 135.255844 305.967924 135.462891 303.919922 135.462891 L 290 135.462891 Z"/>
</svg>
